<?xml version="1.0" encoding="UTF-8"?>
<svg width="1200" height="400" viewBox="0 0 1200 400" xmlns="http://www.w3.org/2000/svg">
  <defs>
    <style>
      .primary { fill: #0b1b4d; }
      .text-main { font-family: Arial, Helvetica, sans-serif; font-weight: 700; }
      .text-sub { font-family: Arial, Helvetica, sans-serif; font-weight: 400; }
    </style>
  </defs>

  <!-- Tooth Icon -->
  <g transform="translate(80,60) scale(1.2)" class="primary">
    <path d="
      M120 20
      C70 20, 40 60, 40 110
      C40 190, 80 260, 120 260
      C150 260, 150 200, 180 200
      C210 200, 210 260, 240 260
      C280 260, 320 190, 320 110
      C320 60, 290 20, 240 20
      C210 20, 190 40, 180 40
      C170 40, 150 20, 120 20
      Z
    "/>

    <text x="180" y="175" font-size="140" text-anchor="middle" fill="#ffffff" class="text-main">A</text>
    <path d="M260 40 L270 60 L290 70 L270 80 L260 100 L250 80 L230 70 L250 60 Z" fill="#ffffff"/>
  </g>

  <text x="480" y="170" font-size="110" class="text-main primary">Dr.Abiy</text>
  <rect x="480" y="190" width="420" height="6" class="primary"/>
  <text x="480" y="250" font-size="48" class="text-sub primary">Speciality Dental Clinic</text>
</svg>
